<?xml version="1.0" encoding="UTF-8"?>
<svg version="1.1" xmlns="http://www.w3.org/2000/svg" width="1661" height="1584">
<path d="M0 0 C54.36901587 9.90842378 108.54005389 20.35792645 161 38 C162.24168945 38.41749512 163.48337891 38.83499023 164.76269531 39.26513672 C239.45940089 64.66443464 309.73472077 103.0699461 372.00390625 151.44921875 C373.89507027 152.91847925 375.79097612 154.38141949 377.6875 155.84375 C385.41695739 161.83122245 392.87738335 168.0872272 400.25878906 174.49707031 C401.97253755 175.97629573 403.69843278 177.4397591 405.4296875 178.8984375 C420.09456452 191.27395776 433.80553222 204.63605763 447.34887695 218.21850586 C449.58885186 220.4639158 451.83422696 222.70382839 454.08007812 224.94335938 C455.53417542 226.39811646 456.98796303 227.85318318 458.44140625 229.30859375 C459.09879288 229.96395615 459.7561795 230.61931854 460.43348694 231.29454041 C464.27323992 235.15355014 467.93178814 239.12217404 471.48500061 243.24688721 C473.56250193 245.65091071 475.71912316 247.97878146 477.875 250.3125 C482.32186477 255.19336809 486.52428901 260.22375524 490.66748047 265.36279297 C492.18221604 267.22388068 493.71671785 269.06757206 495.25390625 270.91015625 C502.61032226 279.74010669 509.71658906 288.70003809 516.51123047 297.96972656 C517.50171812 299.32048014 518.49552569 300.66880569 519.49267578 302.01464844 C546.07941661 337.904601 568.88493829 376.14993331 589 416 C589.56831543 417.12051758 590.13663086 418.24103516 590.72216797 419.39550781 C613.45451491 464.47106024 630.53062733 512.11691889 643 561 C643.2513974 561.98492432 643.2513974 561.98492432 643.50787354 562.98974609 C650.32377097 589.83275721 655.26852923 616.91535388 658.75 644.375 C658.85105042 645.16066345 658.95210083 645.9463269 659.05621338 646.75579834 C662.25138502 671.8748442 663.38269592 696.92893713 663.31805801 722.22621536 C663.31240672 724.47461265 663.30959315 726.72300236 663.30697632 728.97140503 C663.26954663 751.10483718 662.78818524 773.01821959 660 795 C659.8261333 796.43108843 659.65280801 797.86224273 659.47998047 799.29345703 C649.09406154 884.20857036 620.32002759 966.94240171 546 1077 C545.5261084 1077.54833496 545.0522168 1078.09666992 544.56396484 1078.66162109 C521.49147744 1105.10742075 491.64859601 1125.51679285 455.83642578 1128.15966797 C425.34968611 1129.83217065 398.42344189 1117.81887974 375.9375 1097.8125 C357.05463003 1080.38614316 344.12615331 1056.30658614 332 1034 C331.55221191 1033.17886719 331.10442383 1032.35773438 330.64306641 1031.51171875 C326.09987874 1023.14989605 321.76066024 1014.74967683 318 1006 C313.73020568 1007.33830567 309.77676867 1008.96693991 305.75 1010.9140625 C304.5091116 1011.50864158 303.26796945 1012.10269128 302.02661133 1012.69628906 C301.04599228 1013.16669617 301.04599228 1013.16669617 300.04556274 1013.64660645 C142.62734419 1088.93980919 142.62734419 1088.93980919 78 1069 C76.96842773 1068.68853027 75.93685547 1068.37706055 74.87402344 1068.05615234 C60.96857482 1063.80096571 47.69658087 1059.11599068 35 1052 C33.95328125 1051.46117187 32.9065625 1050.92234375 31.828125 1050.3671875 C15.11557159 1041.40475601 1.21797143 1026.08319866 -5 1008.109375 C-13.23288918 979.76923723 -3.28211329 950.41485676 10.38671875 925.46923828 C18.44715416 911.10167084 27.51531517 897.45851543 37 884 C37.56219238 883.20078125 38.12438477 882.4015625 38.70361328 881.578125 C46.3004118 870.82031825 54.27501124 860.38522313 62.41015625 850.03076172 C64.68950783 847.1192681 66.93957163 844.18577456 69.1875 841.25 C76.51976487 831.70850222 83.95178164 822.25854219 91.5625 812.9375 C96.3261961 807.10202461 100.9727478 801.19483285 105.54296875 795.20703125 C108.14402773 791.80145624 110.78706559 788.42972149 113.4375 785.0625 C113.89890381 784.475896 114.36030762 783.88929199 114.83569336 783.28491211 C117.07931385 780.43427263 119.32664102 777.58661955 121.578125 774.7421875 C138.50985867 753.32044675 154.86529255 731.45885889 170.52783203 709.09277344 C172.01815645 706.97418953 173.5208252 704.86490591 175.02734375 702.7578125 C181.47819243 693.72123309 187.65775976 684.55176797 193.61132812 675.18017578 C195.00777468 672.98779398 196.41701302 670.80405883 197.828125 668.62109375 C211.85876584 646.80668654 224.36860547 624.17342255 236 601 C236.52722656 599.95489258 237.05445313 598.90978516 237.59765625 597.83300781 C248.37802429 576.34657252 257.15108965 554.2240529 264.5625 531.375 C264.77473206 530.72360046 264.98696411 530.07220093 265.20562744 529.40106201 C270.1826179 517.24683031 270.1826179 517.24683031 270 505 C270.99 505 271.98 505 273 505 C273.11537109 504.29689697 273.23074219 503.59379395 273.34960938 502.86938477 C274.271451 497.29051222 275.22153852 491.71826702 276.21875 486.15234375 C294.7211725 382.50741769 266.47740868 286.73259114 207 201 C198.72810104 189.21066969 189.89661668 177.9386376 180.62109375 166.92529297 C179.09514195 165.11299539 177.57772697 163.29392191 176.0625 161.47265625 C170.40254856 154.69520431 164.54423025 148.13844764 158.5300293 141.67358398 C157.42667385 140.46670644 156.338804 139.24560721 155.26098633 138.01586914 C148.24719606 130.054201 140.74470874 122.59342354 133.23413086 115.10375977 C130.9355279 112.81053252 128.6423397 110.5119876 126.34960938 108.21289062 C124.86750813 106.73145 123.3850968 105.2503195 121.90234375 103.76953125 C121.22815903 103.0933223 120.5539743 102.41711334 119.85935974 101.72041321 C115.95351188 97.83347606 111.9441892 94.12327198 107.76705933 90.52894592 C105.18002474 88.29051741 102.69078668 85.95673277 100.1875 83.625 C95.49105346 79.28119787 90.63725046 75.19583574 85.65234375 71.18359375 C83.00732363 69.00602932 80.46787475 66.74681237 77.9375 64.4375 C74.03452014 60.88878123 70.02442762 57.55041081 65.8828125 54.28515625 C62.31038518 51.4533541 58.78183808 48.56964083 55.25 45.6875 C49.64271522 41.11918507 43.99055605 36.61598387 38.29003906 32.16479492 C33.81624547 28.66276797 29.4017462 25.09202337 25 21.5 C19.76241645 17.22788723 14.50009813 12.9910735 9.1875 8.8125 C8.60677734 8.35488281 8.02605469 7.89726562 7.42773438 7.42578125 C4.99878211 5.52208628 2.56953319 3.71302213 0 2 C0 1.34 0 0.68 0 0 Z M142 71 C146.35682424 76.21659572 150.94412539 81.06468672 155.77734375 85.83984375 C156.50691788 86.56563126 157.236492 87.29141876 157.98817444 88.03919983 C161.0800273 91.11485362 164.17782709 94.18449158 167.27514648 97.25463867 C169.54881717 99.51009891 171.81938365 101.76865231 174.08984375 104.02734375 C174.77860092 104.70780258 175.46735809 105.38826141 176.17698669 106.08934021 C180.11905544 110.01170357 183.87132445 114.03996048 187.49736023 118.2567749 C189.56851482 120.65953884 191.72259736 122.98254226 193.875 125.3125 C197.91402153 129.74631311 201.77506878 134.28054584 205.5390625 138.94921875 C207.33280236 141.17288674 209.13872383 143.38198478 210.9609375 145.58203125 C219.37302144 155.77195341 227.28260946 166.27633023 235 177 C235.58958496 177.8151709 236.17916992 178.6303418 236.78662109 179.47021484 C244.96679101 190.81430735 252.52660138 202.39255705 259.54101562 214.4921875 C260.98472241 216.97373973 262.45143519 219.44046575 263.921875 221.90625 C276.69988036 243.54180856 287.55305532 266.33217579 296 290 C296.56992676 291.59642334 296.56992676 291.59642334 297.15136719 293.22509766 C311.42637532 333.67879961 319.21674122 375.51450554 319.25 418.4375 C319.25067474 419.23414063 319.25134949 420.03078125 319.25204468 420.8515625 C319.2087546 453.4769095 314.20939902 485.23379582 307 517 C335.19193997 526.63753726 363.39553773 536.24048587 391.60498047 545.82666016 C401.03171963 549.03016847 410.45787281 552.23540019 419.88406372 555.44052124 C425.08935119 557.21041992 430.29467759 558.9802041 435.5 560.75 C437.58333352 561.45833279 439.66666685 562.16666612 441.75 562.875 C442.78125 563.225625 443.8125 563.57625 444.875 563.9375 C504.25000006 584.12500002 504.25000006 584.12500002 507.37449646 585.18733215 C509.45950553 585.896233 511.54451734 586.60512581 513.62953186 587.31401062 C518.81224872 589.07609543 523.99491928 590.83831618 529.17749023 592.60083008 C538.85746166 595.89268218 548.53788065 599.1831996 558.21987915 602.46908569 C562.74596348 604.00524267 567.27179443 605.5421454 571.79760742 607.07910156 C573.9355024 607.80489557 576.07351866 608.53033244 578.21166992 609.25537109 C581.19481655 610.26697033 584.17758295 611.27968049 587.16015625 612.29296875 C588.55701157 612.76698624 588.55701157 612.76698624 589.98208618 613.25057983 C594.36517327 614.74273088 598.73898601 616.2553206 603.09716797 617.81884766 C603.88586777 618.10141922 604.67456757 618.38399078 605.48716736 618.67512512 C606.94660776 619.2004866 608.40454456 619.73005263 609.86061096 620.26469421 C612.7248125 621.2975838 614.92757909 622 618 622 C613.46453373 573.24373755 595.79516165 522.84309109 577 478 C576.52304688 476.8445166 576.04609375 475.6890332 575.5546875 474.49853516 C558.14321439 432.44549752 536.80443578 391.52935633 511 354 C510.03957111 352.57735827 509.08001194 351.15412919 508.12109375 349.73046875 C494.6167076 329.74828474 480.28873535 310.41481608 464.61328125 292.08203125 C462.20918687 289.26364971 459.88232006 286.38828047 457.5625 283.5 C453.69609833 278.7450895 449.61471132 274.23338355 445.42407227 269.765625 C442.83547165 267.00445101 440.30949497 264.20893828 437.84399414 261.33691406 C433.90838696 256.8314745 429.73847646 252.594206 425.50390625 248.37109375 C424.71153061 247.57776138 423.91915497 246.78442902 423.10276794 245.96705627 C421.43749717 244.30110919 419.77097971 242.63640744 418.10327148 240.97290039 C415.56965378 238.44463866 413.04141833 235.91108339 410.51367188 233.37695312 C408.88573717 231.7496793 407.25749225 230.12271575 405.62890625 228.49609375 C404.509786 227.37393715 404.509786 227.37393715 403.36805725 226.22911072 C398.73737341 221.61876868 393.95366584 217.25932859 389 213 C387.39231627 211.54554483 385.78760285 210.08779105 384.1875 208.625 C379.92254692 204.78071755 375.5513915 201.10473095 371.0859375 197.49609375 C368.85060183 195.68801844 366.62811795 193.86887237 364.4140625 192.03515625 C354.22473111 183.62575631 343.71336028 175.72774392 333 168 C332.29794434 167.49114258 331.59588867 166.98228516 330.87255859 166.45800781 C277.68159859 127.98807393 207.93104407 82.79072435 142 71 Z M298 549 C295.81840512 554.40240834 293.6776345 559.81841502 291.58984375 565.2578125 C285.61310373 580.77791102 279.22214687 596.01012388 272 611 C271.43265137 612.17852539 270.86530273 613.35705078 270.28076172 614.57128906 C262.50386369 630.6599111 254.25708155 646.3554145 245.01025391 661.65991211 C243.4480644 664.25552963 241.90049796 666.85809453 240.36083984 669.46704102 C233.76540857 680.60751723 226.86466747 691.49138143 219.64550781 702.23754883 C217.99527826 704.69453007 216.35258801 707.156421 214.7109375 709.61914062 C205.52258773 723.37158102 196.09275902 736.95631192 186.25 750.25 C185.67765625 751.024646 185.1053125 751.79929199 184.515625 752.59741211 C173.4729183 767.49703402 162.13506957 782.17257067 150.72216797 796.78955078 C148.96726486 799.04201644 147.2190876 801.29955469 145.47265625 803.55859375 C139.28317008 811.55797105 133.01960077 819.48227564 126.61523438 827.31079102 C122.47877672 832.37820479 118.48198722 837.53722886 114.515625 842.73828125 C111.7953821 846.28731448 108.99249767 849.7678399 106.1875 853.25 C100.24403342 860.64406891 94.45887235 868.15153607 88.73144531 875.71386719 C87.55261479 877.270349 86.37221371 878.8256423 85.19042969 880.37988281 C43.78205029 931.35996338 43.78205029 931.35996338 29 993 C31.55001914 1004.10098154 39.70071867 1011.97195522 49 1018 C83.62575027 1038.15588407 117.24168224 1039.49362666 155.36328125 1029.78515625 C205.62971953 1016.50200485 253.76334503 995.44906083 300.37353516 972.66821289 C301.5032373 972.11641357 302.63293945 971.56461426 303.796875 970.99609375 C304.86228516 970.46048828 305.92769531 969.92488281 307.02539062 969.37304688 C310 968 310 968 312.64648438 967.25195312 C315.30010238 966.4753378 316.90545517 965.82070658 319 964 C321.45265202 959.08298975 322.6990488 953.9299106 324 948.625 C324.41254621 947.05311445 324.82772013 945.48191648 325.24536133 943.91137695 C326.33183367 939.7785964 327.36726954 935.63479603 328.38677979 931.48504639 C328.98312335 929.06839183 329.5916187 926.65516087 330.20458984 924.24267578 C337.84707455 894.08653957 343.79629284 863.66409824 347.8125 832.8125 C347.96168884 831.68208786 347.96168884 831.68208786 348.1138916 830.52883911 C351.23878408 806.53893018 352.38735841 782.55566728 352.3125 758.375 C352.31034485 757.11074188 352.3081897 755.84648376 352.30596924 754.54391479 C352.25233517 734.86501722 351.77105281 715.50691711 349 696 C348.90289734 695.31214417 348.80579468 694.62428833 348.70574951 693.91558838 C341.58918372 643.99237837 327.36095412 591.33239626 299 549 C298.67 549 298.34 549 298 549 Z M335 556 C336.26451968 559.97097145 337.71174471 563.73025113 339.46875 567.5078125 C382.6085828 661.53310432 386.91962836 765.91845202 359.125 918.5 C358.82295151 919.80207901 358.82295151 919.80207901 358.51480103 921.13046265 C356.33634436 930.47813127 353.90569253 939.5802606 350.6484375 948.61328125 C343.75188871 967.4890407 343.75188871 967.4890407 347.66625977 986.54370117 C350.12266445 991.42151069 352.95465327 996.0516476 355.90625 1000.64208984 C358.56670796 1004.90887375 360.77445547 1009.33213695 362.99658203 1013.83813477 C371.60467012 1031.21938653 381.56210571 1048.07452685 394 1063 C394.73605469 1063.89976562 395.47210937 1064.79953125 396.23046875 1065.7265625 C406.65434166 1077.94002067 422.72784678 1088.84066213 439 1091 C463.43422331 1092.87155753 482.77197188 1085.67695472 501.5234375 1069.70214844 C525.64443892 1048.77993464 542.43334573 1021.5654684 558 994 C558.48791016 993.13777832 558.97582031 992.27555664 559.47851562 991.38720703 C601.61292431 916.44515323 625.57166257 829.57451227 623 653 C622.27672012 652.75547089 621.55344025 652.51094177 620.8082428 652.25900269 C559.09346108 631.39314279 559.09346108 631.39314279 536.9375 623.8125 C521.09197358 618.39110548 505.23536188 613.00283838 489.375 607.625 C470.0545924 601.07370284 450.73771321 594.51222825 431.42651367 587.93383789 C421.24547269 584.46580219 411.0632188 581.0013868 400.87890625 577.54296875 C397.56899259 576.41873387 394.2590897 575.2944673 390.94918823 574.17019653 C388.79115469 573.43731034 386.63305431 572.70462091 384.47488403 571.97213745 C364.66459151 565.24798179 364.66459151 565.24798179 355.1796875 561.9296875 C353.32597534 561.28181274 353.32597534 561.28181274 351.43481445 560.62084961 C349.27551337 559.863148 347.11765165 559.10132413 344.96166992 558.33422852 C344.05779541 558.01639404 343.1539209 557.69855957 342.22265625 557.37109375 C341.46734619 557.10224365 340.71203613 556.83339355 339.93383789 556.55639648 C337.8548744 555.86175034 337.8548744 555.86175034 335 556 Z " fill="#FDFDFD" transform="translate(957,448)"/>
<path d="M0 0 C1.70736328 0.45826172 1.70736328 0.45826172 3.44921875 0.92578125 C31.8478165 9.51721621 57.21341233 26.74967013 81 44 C81.79889648 44.5775 82.59779297 45.155 83.42089844 45.75 C93.63739277 53.15313701 103.66254001 60.78196323 113.59375 68.5625 C117.20326484 71.38761497 120.84159626 74.17218764 124.49243164 76.94360352 C131.49576735 82.26004531 138.38256986 87.69342692 145.1875 93.26147461 C151.15535657 98.1428563 157.2059185 102.91195233 163.28222656 107.65722656 C166.19271647 109.93233948 169.09590285 112.21673698 172 114.5 C173.16534762 115.41538617 174.3307122 116.33075076 175.49609375 117.24609375 C177.84387673 119.09063996 180.19007187 120.93718056 182.53515625 122.78515625 C189.66009271 128.39733803 196.8123525 133.9717431 204.01660156 139.48193359 C205.475164 140.59829761 206.93269655 141.71600755 208.38964844 142.83447266 C218.56663937 150.64574281 228.75519274 158.412246 239.26025391 165.77832031 C241.11896271 167.08353766 242.9719759 168.39656192 244.82421875 169.7109375 C248.39209821 172.24099782 251.96800798 174.75943695 255.546875 177.27392578 C257.26979991 178.48621471 258.99100471 179.7009502 260.7109375 180.91748047 C272.55825399 189.29377666 284.48015955 197.33890721 296.94726562 204.76171875 C299.58115912 206.35057553 302.17353137 208.00022421 304.76708984 209.65380859 C376.34232506 256.05231211 376.34232506 256.05231211 457 275 C457.33 275.66 457.66 276.32 458 277 C460.5247147 277.80354174 460.5247147 277.80354174 463.6328125 278.40234375 C464.82068359 278.65153564 466.00855469 278.90072754 467.23242188 279.1574707 C468.51697266 279.41488037 469.80152344 279.67229004 471.125 279.9375 C471.77637939 280.07006195 472.42775879 280.2026239 473.09887695 280.33920288 C531.50649899 292.1944016 591.41721429 288.86092857 648 270 C649.64597168 269.45134277 649.64597168 269.45134277 651.32519531 268.89160156 C669.61970306 262.67928115 686.79464678 254.6983347 704 246 C704.90186035 245.55156738 705.8037207 245.10313477 706.73291016 244.64111328 C726.89736625 234.6086298 745.86443733 222.32317749 764 209 C765.59134766 207.83404297 765.59134766 207.83404297 767.21484375 206.64453125 C777.8406873 198.75543584 788.24749114 190.59346215 798.30517578 181.99145508 C801.76037273 179.03658929 805.2671583 176.15951682 808.8125 173.3125 C812.74117422 170.11831705 816.37089272 166.78945732 819.85546875 163.1171875 C821.71822236 161.27818485 823.62310564 159.58786209 825.60839844 157.88500977 C830.05634396 154.00420606 834.2432291 149.90123039 838.41015625 145.72265625 C839.18129257 144.95247665 839.95242889 144.18229706 840.74693298 143.38877869 C842.36580153 141.77058627 843.98342551 140.15114788 845.59985352 138.53051758 C848.05568718 136.06932768 850.51681365 133.61352191 852.97851562 131.15820312 C854.56021653 129.57584133 856.14160717 127.99316933 857.72265625 126.41015625 C858.81200218 125.32384666 858.81200218 125.32384666 859.9233551 124.21559143 C863.93585648 120.18487562 867.78150209 116.06282483 871.48890686 111.74920654 C873.71982701 109.16674487 876.04897847 106.68465525 878.375 104.1875 C882.71880213 99.49105346 886.80416426 94.63725046 890.81640625 89.65234375 C892.99397068 87.00732363 895.25318763 84.46787475 897.5625 81.9375 C901.11121877 78.03452014 904.44958919 74.02442762 907.71484375 69.8828125 C910.5466459 66.31038518 913.43035917 62.78183808 916.3125 59.25 C920.88081493 53.64271522 925.38401613 47.99055605 929.83520508 42.29003906 C933.87023803 37.13533728 937.99851578 32.05935314 942.14208984 26.99169922 C944.85225144 23.66990582 947.53514844 20.33190485 950.1640625 16.9453125 C950.66357422 16.30207031 951.16308594 15.65882813 951.67773438 14.99609375 C952.61799732 13.78047716 953.55442472 12.56188064 954.48632812 11.33984375 C956.53387573 8.69155637 958.18390013 6.87739991 961 5 C960.24966719 13.80561554 958.43392906 22.38706839 956.68359375 31.03515625 C956.34533737 32.716807 956.00721041 34.39848378 955.66920471 36.08018494 C954.95827069 39.61188466 954.24415354 43.14292371 953.52807617 46.67358398 C952.80838036 50.22399773 952.09381536 53.77537456 951.38452148 57.32788086 C938.75424951 120.57377404 920.96759076 181.75172076 893.33837891 240.16748047 C891.97860002 243.0452905 890.63526133 245.93040475 889.29296875 248.81640625 C883.04148257 262.17241448 876.28423064 275.17889331 869 288 C868.15671143 289.49031738 868.15671143 289.49031738 867.29638672 291.01074219 C849.0023492 323.13513266 828.18488135 354.19861077 805 383 C804.48969238 383.63647461 803.97938477 384.27294922 803.45361328 384.92871094 C793.23861752 397.65630371 782.77985856 410.12988862 771.66796875 422.0859375 C769.69529705 424.24056867 767.78012401 426.41435138 765.87792969 428.62915039 C761.8627619 433.22284463 757.60364114 437.54052442 753.28515625 441.84765625 C752.47058456 442.66318466 751.65601288 443.47871307 750.8167572 444.31895447 C749.10440807 446.03198008 747.39081158 447.74375965 745.67602539 449.4543457 C743.06997985 452.05503552 740.46931478 454.66101956 737.86914062 457.26757812 C736.19563301 458.94042486 734.52181518 460.61296134 732.84765625 462.28515625 C732.0797023 463.05513443 731.31174835 463.82511261 730.52052307 464.61842346 C725.83876766 469.28017096 721.01021061 473.69524593 716 478 C714.39231627 479.45445517 712.78760285 480.91220895 711.1875 482.375 C706.86388062 486.27680286 702.41257548 489.98148498 697.8828125 493.640625 C695.42565865 495.65162896 693.01561191 497.70605221 690.6159668 499.78491211 C682.27151218 506.98320087 673.4603662 513.53092097 664.60058594 520.07714844 C662.03380583 521.97500425 659.47340312 523.8811904 656.9140625 525.7890625 C648.42432327 532.10303941 639.88558388 538.25050455 631 544 C629.50859223 544.98228028 628.0177561 545.96542878 626.52734375 546.94921875 C614.87001171 554.61960938 603.05374752 561.9690242 591 569 C590.12569336 569.50998535 589.25138672 570.0199707 588.35058594 570.54541016 C519.10161791 610.72582872 443.82173185 639.88025582 83.85546875 649.02783203 C43.90637042 638.37777479 5.90609614 623.52160599 -31 605 C-32.47750732 604.25919189 -32.47750732 604.25919189 -33.98486328 603.50341797 C-82.85024251 578.83641311 -141.82916135 543.63756316 -160.76660156 488.77929688 C-167.62502485 467.54438945 -168.91552012 444.44606126 -162 423 C-161.79101074 422.3517627 -161.58202148 421.70352539 -161.36669922 421.03564453 C-145.16584718 372.86996533 -96.1931163 348.15238701 -53.75 326.75 C-52.99315918 326.36690674 -52.23631836 325.98381348 -51.45654297 325.58911133 C-46.24678277 323 -46.24678277 323 -44 323 C-45.01848509 320.68644441 -46.03956288 318.37408871 -47.0625 316.0625 C-47.41046631 315.27528564 -47.75843262 314.48807129 -48.11694336 313.67700195 C-50.48212398 308.35001409 -52.89496022 303.04682498 -55.34375 297.7578125 C-128.83066446 138.74873903 -128.83066446 138.74873903 -100.1875 59.6875 C-91.39352791 36.56830103 -77.58803881 14.51145806 -55 3 C-37.34766998 -4.72842967 -18.47626485 -4.99083229 0 0 Z M-50.9375 45.8125 C-62.73139538 59.79471581 -67.84081286 77.79151086 -73 95 C-73.22526367 95.73065674 -73.45052734 96.46131348 -73.68261719 97.21411133 C-89.79297157 154.09572351 -42.26346427 238.78605168 -19 289 C-18.63463135 289.79108154 -18.2692627 290.58216309 -17.89282227 291.3972168 C-15.71636528 296.10534453 -13.51973658 300.80315403 -11.29321289 305.48782349 C-10.60502208 306.93891481 -9.92116415 308.39207003 -9.24194336 309.84738159 C-8.30594754 311.84694267 -7.35131622 313.83642909 -6.390625 315.82421875 C-5.85469727 316.94916748 -5.31876953 318.07411621 -4.76660156 319.2331543 C-1.73476617 323.98160517 2.27076165 325.27983928 7.53125 326.7265625 C8.63154541 327.03142578 9.73184082 327.33628906 10.86547852 327.65039062 C12.06487061 327.97201172 13.2642627 328.29363281 14.5 328.625 C15.129133 328.79507568 15.75826599 328.96515137 16.40646362 329.14038086 C21.26435159 330.45253466 26.13083578 331.73042801 31 333 C31.7052179 333.18494019 32.41043579 333.36988037 33.13702393 333.5604248 C76.68677378 344.96687438 121.07620475 352.77357478 166 356 C166.7331543 356.05784668 167.46630859 356.11569336 168.22167969 356.17529297 C249.19444632 362.47733046 344.77781294 350.23902227 413 303 C410.26723166 301.17815444 408.18791726 300.26636412 405.1171875 299.22265625 C404.12783203 298.88000732 403.13847656 298.5373584 402.11914062 298.18432617 C401.04857422 297.81412354 399.97800781 297.4439209 398.875 297.0625 C385.60049115 292.36862906 372.77818807 286.90086419 360 281 C358.98470215 280.53223145 357.9694043 280.06446289 356.92333984 279.58251953 C316.22484934 260.71339605 277.75924135 237.66726067 241 212 C240.28005859 211.49758789 239.56011719 210.99517578 238.81835938 210.47753906 C233.86053916 207.01067388 228.92552001 203.51256315 224 200 C222.93579834 199.24299805 222.93579834 199.24299805 221.85009766 198.47070312 C209.36390026 189.57642553 197.15652444 180.33821218 185 171 C183.75800729 170.04922466 182.51584249 169.09867404 181.2734375 168.1484375 C174.05714702 162.62243004 166.90487605 157.01660809 159.76611328 151.39111328 C157.42843984 149.54979959 155.08849237 147.71139022 152.74829102 145.87329102 C151.58060701 144.9560696 150.41312723 144.03858813 149.24584961 143.12084961 C146.35719093 140.84989658 143.46629465 138.58192092 140.5703125 136.3203125 C134.30612468 131.42266246 128.09628447 126.46722296 121.9375 121.4375 C116.18084181 116.73965572 110.36258331 112.14940156 104.453125 107.64453125 C101.90705744 105.70214735 99.379753 103.73732155 96.859375 101.76171875 C27.06421214 41.12495604 27.06421214 41.12495604 -50.9375 45.8125 Z M887.4150238 148.47145081 C886.38865562 149.50567421 886.38865562 149.50567421 885.34155273 150.56079102 C884.56661972 151.33902725 883.79168671 152.11726349 882.99327087 152.91908264 C882.14857742 153.77207443 881.30388397 154.62506622 880.43359375 155.50390625 C879.13241356 156.81076637 879.13241356 156.81076637 877.8049469 158.14402771 C874.07902744 161.88632842 870.35889158 165.63435771 866.63842773 169.38208008 C863.92641731 172.11228709 861.21133014 174.83940808 858.49609375 177.56640625 C857.250308 178.82463951 857.250308 178.82463951 855.97935486 180.10829163 C851.68107911 184.42438192 847.31596008 188.58704347 842.68966675 192.55091858 C840.30074106 194.59969407 837.99899627 196.73965197 835.6875 198.875 C831.25368689 202.91402153 826.71945416 206.77506878 822.05078125 210.5390625 C819.82711326 212.33280236 817.61801522 214.13872383 815.41796875 215.9609375 C790.94988893 236.16559269 764.57420579 254.28788542 737 270 C736.09282227 270.51868652 735.18564453 271.03737305 734.25097656 271.57177734 C681.38036581 301.57139355 619.12940954 322.80178917 557.8359375 323.23828125 C556.69739319 323.24802979 555.55884888 323.25777832 554.38580322 323.26782227 C529.6259998 323.43618472 505.43218025 323.30817163 481 319 C479.78183594 318.78617676 478.56367187 318.57235352 477.30859375 318.35205078 C470.79003525 317.18296149 464.29742117 315.91608871 457.81347656 314.56933594 C453.22225925 313.64025586 448.61222489 312.81737058 444 312 C443.6189209 313.14847412 443.2378418 314.29694824 442.84521484 315.48022461 C435.50097845 337.60433542 428.10831329 359.71004456 420.55419922 381.76342773 C419.96838732 383.47378285 419.38261327 385.18415092 418.796875 386.89453125 C418.49995758 387.76152145 418.20304016 388.62851166 417.89712524 389.52177429 C413.73912268 401.67246397 409.62267583 413.83729114 405.5 426 C400.01725119 442.17259486 394.52565461 458.34201212 389 474.5 C383.51720692 490.53339068 378.06667512 506.57760973 372.625 522.625 C366.86231877 539.61732164 361.09959042 556.60962152 355.32122803 573.59661865 C354.66538283 575.52494719 354.0098096 577.45336827 353.35455322 579.38189697 C352.44159349 582.06867221 351.52771279 584.75513161 350.61328125 587.44140625 C350.32384644 588.2921875 350.03441162 589.14296875 349.73620605 590.01953125 C348.10145833 594.8122578 346.44432867 599.59647863 344.76708984 604.37451172 C344.2109626 605.96113869 344.2109626 605.96113869 343.64360046 607.57981873 C342.92262687 609.63343052 342.19894152 611.68609277 341.47224426 613.73768616 C341.14906723 614.6581926 340.8258902 615.57869904 340.49291992 616.52709961 C340.20430588 617.34375595 339.91569183 618.16041229 339.61833191 619.0018158 C338.90146111 620.96982424 338.90146111 620.96982424 339 623 C369.91868351 618.32624552 400.23563945 610.49684894 430 601 C431.10214844 600.65533691 432.20429687 600.31067383 433.33984375 599.95556641 C513.2844025 574.89565642 589.81184348 533.47592962 655 481 C655.95471191 480.23453857 655.95471191 480.23453857 656.92871094 479.45361328 C669.07245672 469.70720531 681.00906508 459.73113572 692.52172852 449.24291992 C694.00757509 447.89817827 695.5017134 446.56239341 697.01196289 445.24511719 C705.27833801 437.98866971 712.98646631 430.16429784 720.75073242 422.37963867 C723.18881632 419.93618078 725.63221789 417.49813193 728.07617188 415.06054688 C729.64875833 413.48729979 731.22103464 411.91374263 732.79296875 410.33984375 C733.87290352 409.26294533 733.87290352 409.26294533 734.97465515 408.16429138 C739.51624598 403.6018909 743.80153179 398.87815549 748 394 C749.45445517 392.39231627 750.91220895 390.78760285 752.375 389.1875 C756.22050182 384.92119411 759.89731266 380.548307 763.5078125 376.08203125 C765.30393609 373.86080631 767.11008536 371.65099623 768.9296875 369.44921875 C818.86606894 308.84267033 858.02558221 239.52621599 884.625 165.6875 C885.05127686 164.50671875 885.47755371 163.3259375 885.91674805 162.109375 C886.30773682 161.00464844 886.69872559 159.89992188 887.1015625 158.76171875 C887.44525879 157.79194092 887.78895508 156.82216309 888.14306641 155.82299805 C889.03223725 152.89380076 889.56273976 150.0269494 890 147 C888.76169251 146.88660443 888.76169251 146.88660443 887.4150238 148.47145081 Z M399.6875 341.0546875 C358.1254112 361.67333624 313.90288367 373.78507868 268 380 C266.24574707 380.2477417 266.24574707 380.2477417 264.45605469 380.50048828 C222.52043742 386.16572185 176.93319619 385.28944572 135 380 C134.20920044 379.90289734 133.41840088 379.80579468 132.6036377 379.70574951 C86.53294939 374.04485382 40.25808048 365.16633821 -3.9765625 350.89233398 C-5.26046875 350.49123413 -5.26046875 350.49123413 -6.5703125 350.08203125 C-7.28977051 349.84718018 -8.00922852 349.6123291 -8.75048828 349.37036133 C-14.50057078 348.42366335 -19.32067239 350.84441361 -24.36328125 353.32421875 C-25.41486923 353.8312886 -25.41486923 353.8312886 -26.48770142 354.34860229 C-28.76725847 355.45234455 -31.04024444 356.56881124 -33.3125 357.6875 C-34.08989532 358.06760223 -34.86729065 358.44770447 -35.66824341 358.83932495 C-53.9616914 367.79270815 -72.47801504 377.00701245 -89 389 C-90.49466797 390.07121094 -90.49466797 390.07121094 -92.01953125 391.1640625 C-110.45193186 404.65797087 -125.05809386 420.66653612 -129.5625 443.6953125 C-132.25878513 464.06189482 -125.75221889 482.2221882 -114.1875 498.75 C-102.27520279 514.26152931 -87.99414067 526.86899815 -72 538 C-71.40348633 538.41604492 -70.80697266 538.83208984 -70.19238281 539.26074219 C-52.58404846 551.45410277 -33.92467361 562.00701764 -15 572 C-14.13745605 572.45729492 -13.27491211 572.91458984 -12.38623047 573.38574219 C59.12553406 611.01780922 140.64089387 629.58044517 290.25 629.5625 C291.02282318 629.50114868 291.79564636 629.43979736 292.59188843 629.37658691 C294.77581303 629.19998876 296.95820575 629.01063592 299.140625 628.81640625 C300.39391602 628.70756104 301.64720703 628.59871582 302.93847656 628.48657227 C306.16359113 628.19226823 306.16359113 628.19226823 309 626 C310.26867288 623.24835266 310.26867288 623.24835266 311.3215332 619.90600586 C311.53386628 619.27819875 311.74619936 618.65039164 311.96496677 618.00356007 C312.67014128 615.9104997 313.36037013 613.81281569 314.05078125 611.71484375 C314.54529643 610.23782456 315.04076779 608.76112519 315.53713989 607.284729 C316.59155212 604.142178 317.63950907 600.9975779 318.68234253 597.85116577 C320.3165632 592.92055353 321.96470278 587.99467045 323.61547852 583.06958008 C325.52115193 577.38148857 327.424022 571.69247953 329.32246685 566.00197124 C332.97782314 555.04668998 336.68915391 544.11130867 340.4375 533.1875 C341.51369433 530.04450117 342.58888755 526.90116017 343.6640625 523.7578125 C343.92890442 522.98388153 344.19374634 522.20995056 344.46661377 521.41256714 C348.09669081 510.80091448 351.70353647 500.1813472 355.3125 489.5625 C355.66907684 488.51339447 356.02565369 487.46428894 356.39303589 486.38339233 C358.20440235 481.05398854 360.01558403 475.72452199 361.82666016 470.39501953 C363.97108874 464.08475998 366.11627721 457.77475897 368.26171875 451.46484375 C368.61201141 450.43459076 368.96230408 449.40433777 369.32321167 448.34286499 C371.08350916 443.16570715 372.84393324 437.98859238 374.60449219 432.81152344 C377.87747217 423.18663331 381.14944047 413.56140337 384.41751099 403.93484497 C385.9343251 399.46707862 387.45176075 394.99952348 388.96923828 390.53198242 C389.68129725 388.43508166 390.39306342 386.33808145 391.10449219 384.2409668 C392.10143083 381.3023051 393.09927648 378.36395363 394.09765625 375.42578125 C394.41485626 374.49170441 394.73205627 373.55762756 395.05886841 372.59524536 C396.77404548 367.55710672 398.51105068 362.52737485 400.27294922 357.50537109 C400.64471786 356.44456833 401.01648651 355.38376556 401.39952087 354.29081726 C402.11667816 352.24847825 402.83658808 350.2071032 403.55958557 348.16682434 C403.87950974 347.25607651 404.1994339 346.34532867 404.52905273 345.40698242 C404.81368881 344.60225998 405.09832489 343.79753754 405.3915863 342.96842957 C406.09843395 341.02491719 406.09843395 341.02491719 406 339 C403.41198715 339 402.00184261 339.88757323 399.6875 341.0546875 Z " fill="#FDFDFD" transform="translate(203,911)"/>
<path d="M0 0 C0.81754446 -0.00282738 1.63508892 -0.00565475 2.47740746 -0.00856781 C6.82079752 -0.02345945 11.16415536 -0.03274694 15.50756836 -0.03710938 C19.0180931 -0.04145369 22.52836646 -0.05520135 26.03881836 -0.078125 C55.70826474 -0.26768449 84.79605922 1.23334393 114.13671875 5.953125 C114.93637054 6.0787381 115.73602234 6.2043512 116.55990601 6.33377075 C132.7308002 8.88463053 148.624748 12.24361675 164.51171875 16.203125 C165.5903418 16.46673828 166.66896484 16.73035156 167.78027344 17.00195312 C197.86051528 24.4174715 227.19365517 34.67606922 255.51171875 47.203125 C257.26621338 47.97825439 257.26621338 47.97825439 259.05615234 48.76904297 C301.03973087 67.47254587 347.60104834 90.83279082 376.01171875 128.390625 C376.57705322 129.13747559 377.1423877 129.88432617 377.72485352 130.65380859 C395.41985345 154.34387756 403.46283424 182.32456121 399.29296875 211.7265625 C395.37305259 235.73604897 383.22736155 255.87964064 366.51171875 273.203125 C365.9290625 273.83734375 365.34640625 274.4715625 364.74609375 275.125 C343.55424338 297.60120493 313.17585562 313.42688404 286.51171875 328.203125 C287.21943074 332.08103139 288.9780423 335.17652407 290.84375 338.625 C291.55706736 339.95302694 292.27019255 341.28115711 292.9831543 342.609375 C293.36353851 343.31449219 293.74392273 344.01960938 294.13583374 344.74609375 C323.44899602 399.18557645 353.53144748 456.74172041 364.51171875 518.203125 C364.7025 519.26402344 364.89328125 520.32492187 365.08984375 521.41796875 C367.17907657 540.16302987 365.52214168 558.10773929 360.51171875 576.203125 C360.27646484 577.09 360.04121094 577.976875 359.79882812 578.890625 C356.76781705 590.24647917 352.89321076 600.7588626 347.51171875 611.203125 C346.77115234 612.69585938 346.77115234 612.69585938 346.015625 614.21875 C342.58451176 620.87641145 338.45470314 626.5852682 333.51171875 632.203125 C332.83367187 632.9765625 332.155625 633.75 331.45703125 634.546875 C320.40506697 646.36802361 304.84321003 654.10769135 288.55859375 655.1484375 C287.883125 655.16648437 287.20765625 655.18453125 286.51171875 655.203125 C285.774375 655.24179687 285.03703125 655.28046875 284.27734375 655.3203125 C221.59900437 657.16379307 161.18892976 604.31277014 112.51171875 570.203125 C110.828171 569.02467387 109.14457798 567.8462874 107.4609375 566.66796875 C104.99271586 564.9401165 102.52458501 563.21213496 100.05664062 561.48388672 C49.00062134 525.7345831 -2.41267602 490.5528672 -57.48828125 461.203125 C-58.51759766 460.65156738 -59.54691406 460.10000977 -60.60742188 459.53173828 C-100.64638074 438.14263202 -142.80349597 420.60871185 -186.92578125 409.640625 C-187.95279144 409.38523956 -187.95279144 409.38523956 -189.00054932 409.12469482 C-200.22915055 405.65166758 -200.22915055 405.65166758 -211.48828125 406.203125 C-211.48828125 405.213125 -211.48828125 404.223125 -211.48828125 403.203125 C-212.21241211 403.14833984 -212.93654297 403.09355469 -213.68261719 403.03710938 C-221.06520984 402.45371143 -228.39258465 401.63448004 -235.73828125 400.703125 C-325.99701451 389.69984016 -413.08999961 416.67213548 -486.48828125 469.203125 C-487.25414551 469.7511377 -488.02000977 470.29915039 -488.80908203 470.86376953 C-498.01963428 477.48656879 -507.01418115 484.25665476 -515.58203125 491.6953125 C-518.33850467 494.0738823 -521.14791068 496.36343136 -523.98828125 498.640625 C-529.84385486 503.40994727 -535.34420705 508.52117555 -540.85302734 513.68115234 C-542.41459672 515.13454493 -543.98898056 516.57207104 -545.5703125 518.00390625 C-552.16635647 523.99017055 -558.55399966 530.16508245 -564.86328125 536.453125 C-565.61246826 537.19771973 -566.36165527 537.94231445 -567.13354492 538.70947266 C-571.19537245 542.78261699 -575.08129442 546.94734859 -578.83544922 551.30517578 C-581.43038174 554.28494024 -584.15242872 557.14174798 -586.86328125 560.015625 C-591.51143658 564.98285593 -595.93306661 570.05888533 -600.1875 575.37109375 C-602.84738502 578.64514578 -605.60099504 581.8281019 -608.36328125 585.015625 C-614.30275277 591.90623416 -619.94410245 598.99228076 -625.48828125 606.203125 C-626.39368652 607.3775415 -626.39368652 607.3775415 -627.31738281 608.57568359 C-640.97683959 626.31528205 -654.00235183 644.44563755 -666.8125 662.80419922 C-674.1566859 673.3175982 -681.58142092 683.76990337 -689.12524414 694.14111328 C-691.41598484 697.29714873 -693.67409743 700.45326238 -695.80078125 703.72265625 C-696.35765625 704.54121094 -696.91453125 705.35976563 -697.48828125 706.203125 C-697.81828125 706.203125 -698.14828125 706.203125 -698.48828125 706.203125 C-697.90756509 696.27057709 -696.83676947 686.49250214 -695.44921875 676.640625 C-695.24550893 675.17226714 -695.04202853 673.70387744 -694.83876038 672.23545837 C-694.18865042 667.55681905 -693.52677006 662.87988289 -692.86328125 658.203125 C-692.75056507 657.40622883 -692.63784889 656.60933266 -692.52171707 655.78828812 C-685.77813966 608.12319623 -677.42238607 561.08455248 -662.48828125 515.203125 C-662.25131531 514.47373718 -662.01434937 513.74434937 -661.77020264 512.99285889 C-654.60259503 490.99033612 -646.80802227 469.39912889 -637.48828125 448.203125 C-637.20511047 447.5561969 -636.9219397 446.9092688 -636.63018799 446.24273682 C-623.93902747 417.2635496 -609.79727286 389.33808527 -593.48828125 362.203125 C-593.00939453 361.39875 -592.53050781 360.594375 -592.03710938 359.765625 C-574.36622673 330.08856819 -554.14479651 302.08387834 -532.48828125 275.203125 C-531.73160156 274.26082031 -530.97492188 273.31851562 -530.1953125 272.34765625 C-521.21533812 261.29395583 -511.86339569 250.55514453 -502.1796875 240.11328125 C-500.44495032 238.23754946 -498.72254919 236.35029546 -497.015625 234.44921875 C-489.83090739 226.50264596 -482.30352009 218.90993686 -474.73828125 211.328125 C-474.19476013 210.78201569 -473.65123901 210.23590637 -473.09124756 209.67324829 C-467.61696686 204.17843414 -462.1329965 198.74377529 -456.23193359 193.70166016 C-453.46892764 191.32706893 -450.83250892 188.82006511 -448.17578125 186.328125 C-443.35592048 181.84445231 -438.41324147 177.5868827 -433.27734375 173.46484375 C-430.80122457 171.45689836 -428.37389169 169.40218035 -425.95776367 167.32275391 C-418.40653919 160.83640123 -410.55431697 154.78696782 -402.60400391 148.79980469 C-400.61523038 147.29893014 -398.63468668 145.78789771 -396.65625 144.2734375 C-379.23823949 130.99603213 -361.172456 118.62681018 -342.48828125 107.203125 C-341.67262695 106.70329102 -340.85697266 106.20345703 -340.01660156 105.68847656 C-320.94514082 94.03574755 -301.41684646 83.31754822 -281.48828125 73.203125 C-280.34762207 72.62401367 -279.20696289 72.04490234 -278.03173828 71.44824219 C-208.21904116 36.175288 -131.85572784 13.02454066 -31.48828125 1.203125 C-30.50695724 1.11724121 -29.52563324 1.03135742 -28.51457214 0.94287109 C-18.99929591 0.18195922 -9.53846947 0.02278117 0 0 Z M-44.48828125 39.203125 C-45.25096313 39.30212097 -46.01364502 39.40111694 -46.79943848 39.50311279 C-65.71551276 41.91088911 -65.71551276 41.91088911 -84.48828125 45.203125 C-96.85258627 89.93896733 -109.18405338 134.68356975 -121.42578125 179.453125 C-121.96322522 181.4185794 -122.50067029 183.3840335 -123.03811646 185.3494873 C-123.30462667 186.32412241 -123.57113688 187.29875751 -123.84572315 188.30292702 C-125.19783584 193.24755002 -126.55004406 198.19214689 -127.90234375 203.13671875 C-128.17019873 204.11612553 -128.4380537 205.0955323 -128.7140255 206.10461807 C-134.95296758 228.91539455 -141.21334359 251.72027651 -147.47877884 274.52378845 C-148.29094489 277.47982365 -149.10299131 280.43589169 -149.91500854 283.39196777 C-151.18796196 288.02590032 -152.46123212 292.65974573 -153.73477554 297.29351616 C-154.19688032 298.9749503 -154.65891757 300.656403 -155.12087631 302.33787727 C-155.55159535 303.90552874 -155.98253179 305.4731205 -156.4137001 307.04064846 C-156.82459582 308.53592675 -157.23448299 310.03148262 -157.64327621 311.52733707 C-158.71485961 315.43903256 -159.81386734 319.34078041 -160.94760132 323.23495483 C-161.30346707 324.47193886 -161.30346707 324.47193886 -161.66652203 325.73391247 C-162.12233884 327.3155335 -162.58490724 328.89522918 -163.05519581 330.47260761 C-164.34410573 334.82171321 -164.34410573 334.82171321 -163.48828125 339.203125 C-162.88693359 338.86692139 -162.28558594 338.53071777 -161.66601562 338.18432617 C-94.27722747 300.67607305 -20.32437734 282.75798698 56.51171875 281.203125 C57.46981445 281.18121094 58.42791016 281.15929687 59.41503906 281.13671875 C120.55868338 279.92154198 180.92636388 288.7686727 240.50932312 301.71842957 C242.13770365 302.07086406 243.76719508 302.41822499 245.39801025 302.75921631 C247.21212254 303.14020556 249.0213124 303.54450268 250.8293457 303.95336914 C253.97729705 304.24647501 255.37196449 303.74356747 258.14453125 302.2734375 C259.01899902 301.81646484 259.8934668 301.35949219 260.79443359 300.88867188 C261.7323877 300.37369141 262.6703418 299.85871094 263.63671875 299.328125 C264.63010254 298.79509766 265.62348633 298.26207031 266.64697266 297.71289062 C325.61115974 266.03627832 325.61115974 266.03627832 361.56640625 212.55078125 C366.45907939 195.2242487 363.25014953 178.0092722 354.64428711 162.41674805 C351.68534705 157.28433696 348.3988902 152.66218308 344.51171875 148.203125 C343.83496094 147.40648437 343.15820312 146.60984375 342.4609375 145.7890625 C325.14437046 125.91960903 303.37401009 112.81877141 280.51171875 100.203125 C279.60550781 99.70039062 278.69929688 99.19765625 277.765625 98.6796875 C221.03394479 67.42113615 157.6373814 48.37750542 93.57421875 39.953125 C92.42912842 39.80206299 91.28403809 39.65100098 90.10424805 39.49536133 C86.24433602 39.0172877 82.3813036 38.59325698 78.51171875 38.203125 C77.65388794 38.11592194 76.79605713 38.02871887 75.91223145 37.93887329 C58.83199439 36.25780437 41.83808372 35.83765069 24.68174744 35.88506699 C22.60167361 35.89072025 20.52160798 35.89353279 18.44152832 35.89614868 C-2.66466832 35.9346987 -23.53566071 36.46273278 -44.48828125 39.203125 Z M-133.48828125 55.953125 C-134.23425568 56.1502005 -134.9802301 56.347276 -135.74880981 56.55032349 C-153.5992398 61.29575189 -171.06777973 67.08356209 -188.48828125 73.203125 C-189.12741455 73.42697876 -189.76654785 73.65083252 -190.42504883 73.88146973 C-234.23242172 89.25101969 -276.94368065 109.84953242 -316.48828125 134.203125 C-317.68855957 134.93861572 -317.68855957 134.93861572 -318.91308594 135.68896484 C-343.37887367 150.73286428 -367.12519489 167.17156388 -389.48828125 185.203125 C-390.89980469 186.34007812 -390.89980469 186.34007812 -392.33984375 187.5 C-398.88756915 192.82120623 -405.33430473 198.26046442 -411.75732422 203.73095703 C-413.56176943 205.26562623 -415.37065644 206.79495921 -417.1796875 208.32421875 C-425.24939395 215.16317341 -425.24939395 215.16317341 -432.82397461 222.53979492 C-434.43189743 224.14677427 -436.09731546 225.59905382 -437.8359375 227.0625 C-443.56725307 232.04656644 -448.88447153 237.45000201 -454.24291992 242.82739258 C-456.0469021 244.63673433 -457.8561679 246.44066819 -459.66601562 248.24414062 C-464.96455067 253.53962121 -470.2069646 258.82987119 -475.06713867 264.53686523 C-477.25562902 267.10282411 -479.56468829 269.54791634 -481.86328125 272.015625 C-486.15258828 276.65869689 -490.21506744 281.43754117 -494.1796875 286.36328125 C-496.25918778 288.9213129 -498.37880407 291.43455294 -500.52270508 293.93823242 C-505.9326706 300.26131201 -511.12108106 306.72590352 -516.11767578 313.38183594 C-517.05162455 314.62288649 -517.99030473 315.86038724 -518.93310547 317.09472656 C-541.56545162 346.74288192 -561.54433863 378.56909171 -579.04101562 411.48486328 C-580.4965943 414.21873861 -581.96870895 416.94328472 -583.44140625 419.66796875 C-596.31974871 443.69614458 -606.90147387 468.70192926 -616.48828125 494.203125 C-616.91206055 495.32477051 -617.33583984 496.44641602 -617.77246094 497.60205078 C-623.10497778 511.81458126 -627.83202739 526.16299673 -632.17578125 540.703125 C-632.40250519 541.45217102 -632.62922913 542.20121704 -632.86282349 542.97296143 C-633.50320504 545.09861665 -634.12904489 547.22797474 -634.75 549.359375 C-635.11053467 550.58462891 -635.47106934 551.80988281 -635.8425293 553.07226562 C-636.44733654 556.00460893 -636.55111286 557.45758325 -635.48828125 560.203125 C-634.25464844 558.77033203 -634.25464844 558.77033203 -632.99609375 557.30859375 C-627.04779266 550.41425681 -621.06902309 543.56382505 -614.90234375 536.86328125 C-612.95098809 534.71300099 -611.03456111 532.54197952 -609.12890625 530.3515625 C-600.32097213 520.2615505 -591.00204056 510.62636271 -581.55078125 501.140625 C-580.52331787 500.10627319 -580.52331787 500.10627319 -579.47509766 499.05102539 C-575.57936599 495.16709898 -571.57512816 491.47335503 -567.41040039 487.88012695 C-564.42445142 485.27495948 -561.55813984 482.54660924 -558.67578125 479.828125 C-552.81335993 474.34840904 -546.75543944 469.21685155 -540.48828125 464.203125 C-539.28492986 463.21018279 -538.0832111 462.21525991 -536.8828125 461.21875 C-475.46891773 410.40276001 -401.87801839 374.59246613 -322.48828125 364.203125 C-321.63540527 364.08598145 -320.7825293 363.96883789 -319.90380859 363.84814453 C-283.46584953 359.0538637 -245.05868739 361.34901307 -208.98046875 367.65234375 C-205.4189805 368.30698657 -205.4189805 368.30698657 -201.48828125 368.203125 C-198.07314822 357.52585013 -194.93671247 346.80670183 -192.03125 335.98046875 C-191.61194427 334.42812942 -191.19230162 332.87588105 -190.77235413 331.32371521 C-189.87463111 328.00396879 -188.97857518 324.68377915 -188.0838623 321.36322021 C-185.63242488 312.26710841 -183.16767492 303.17459732 -180.703125 294.08203125 C-180.31964842 292.66680679 -180.31964842 292.66680679 -179.92842484 291.22299194 C-174.50571051 271.21503772 -169.00129107 251.22999066 -163.47697067 231.24988937 C-161.23211483 223.13047454 -158.98876309 215.01064402 -156.74609375 206.890625 C-156.49521688 205.98230864 -156.24434002 205.07399227 -155.98586082 204.13815117 C-149.7762214 181.65168053 -143.6118847 159.15281573 -137.45451355 136.65198517 C-136.63023318 133.64006728 -135.80569187 130.62822094 -134.9810791 127.61639404 C-128.10260926 102.49140568 -121.26663668 77.35531404 -114.48828125 52.203125 C-121.01548128 52.203125 -127.2097995 54.28774956 -133.48828125 55.953125 Z M16.51171875 310.203125 C15.31466309 310.33734863 14.11760742 310.47157227 12.88427734 310.60986328 C-32.33852638 315.85940586 -77.36963291 326.21399178 -118.48828125 346.203125 C-119.17067871 346.52990234 -119.85307617 346.85667969 -120.55615234 347.19335938 C-137.5570861 355.35248358 -154.02117425 364.39958511 -169.48828125 375.203125 C-166.46139374 377.22105001 -164.23462756 377.97276549 -160.7578125 378.9453125 C-159.57872314 379.28280518 -158.39963379 379.62029785 -157.18481445 379.96801758 C-156.55354645 380.14781158 -155.92227844 380.32760559 -155.2718811 380.5128479 C-108.91681175 393.80667424 -64.35649342 414.41419934 -22.48828125 438.203125 C-20.97258545 439.05874023 -20.97258545 439.05874023 -19.42626953 439.93164062 C-4.54612551 448.34677446 10.0742123 457.11983704 24.50097656 466.28955078 C27.56066548 468.23423467 30.62593567 470.16991463 33.69140625 472.10546875 C48.51294295 481.49630177 63.05368336 491.26371455 77.51171875 501.203125 C78.95025398 502.18788994 80.38902583 503.17230938 81.828125 504.15625 C96.79425996 514.40109386 111.65729055 524.79728082 126.51171875 535.203125 C128.16012605 536.35681399 129.8085638 537.51045947 131.45703125 538.6640625 C134.01672183 540.45534694 136.57547178 542.24791608 139.13183594 544.04394531 C168.0557465 564.3611775 197.27868812 584.56388388 228.51171875 601.203125 C229.17977539 601.56245117 229.84783203 601.92177734 230.53613281 602.29199219 C238.31021376 606.44505857 246.18564048 610.00403832 254.44921875 613.078125 C255.21806396 613.36453857 255.98690918 613.65095215 256.77905273 613.94604492 C268.55490236 618.17578458 283.36793894 621.34593112 295.4296875 616.43359375 C314.06496613 605.42024897 320.81964457 583.30525528 325.89355469 563.61523438 C326.1995459 562.42124023 326.1995459 562.42124023 326.51171875 561.203125 C326.69250977 560.52830078 326.87330078 559.85347656 327.05957031 559.15820312 C337.66367219 519.31376466 315.23219605 473.80474423 299.51171875 438.203125 C299.07053711 437.20361816 298.62935547 436.20411133 298.17480469 435.17431641 C285.51280892 406.71510665 271.64789797 378.55587107 255.92578125 351.65966797 C254.44716373 349.09097848 253.02021304 346.49890343 251.60546875 343.89453125 C250.91541748 342.62681885 250.91541748 342.62681885 250.21142578 341.33349609 C249.35809717 339.75988642 248.50971753 338.18357785 247.66748047 336.60400391 C245.85547526 333.2808223 244.71453167 331.33833361 241.51171875 329.203125 C238.71237012 328.47844866 235.94169541 327.83666266 233.11328125 327.25 C231.83927711 326.97886635 231.83927711 326.97886635 230.53953552 326.70225525 C227.74034075 326.11050524 224.93890127 325.5305525 222.13671875 324.953125 C221.17377899 324.75337067 220.21083923 324.55361633 219.21871948 324.34780884 C188.85652354 318.0697967 158.40458245 313.30752912 127.53430176 310.39453125 C125.63803129 310.21507853 123.74233113 310.02962789 121.84667969 309.84375 C87.23079831 306.56835261 51.07278148 306.3142877 16.51171875 310.203125 Z " fill="#FDFDFD" transform="translate(1225.48828125,-0.203125)"/>
<path d="M0 0 C26.91279146 24.44967471 45.14110006 56.57046985 62.45800781 88.13134766 C66.3229658 86.6606825 69.95269995 84.9110759 73.62207031 83.00634766 C74.20650406 82.70362442 74.79093781 82.40090118 75.39308167 82.08900452 C76.64211683 81.44152138 77.89058132 80.79293639 79.13851929 80.14334106 C81.11391816 79.11526062 83.0910967 78.09066957 85.06860352 77.06665039 C90.52921367 74.23581216 95.98682089 71.4009903 101.39941406 68.47900391 C150.57496508 41.95052849 210.96223003 11.30775001 267.45800781 9.13134766 C268.33328125 9.07978516 269.20855469 9.02822266 270.11035156 8.97509766 C302.45153834 7.91036723 343.65275888 20.85487618 367.45800781 43.13134766 C373.52175652 48.81498077 378.1346319 54.69225244 381.89550781 62.06884766 C382.21350342 62.68832275 382.53149902 63.30779785 382.85913086 63.94604492 C387.44071303 73.53938742 389.02535408 83.51316236 388.95800781 94.06884766 C388.9515625 95.14932373 388.94511719 96.2297998 388.93847656 97.34301758 C388.42042833 120.56827865 379.09759967 141.98064037 368.43603516 162.26513672 C367.48732178 164.07541256 366.55896551 165.89489226 365.63378906 167.71728516 C351.77829144 194.70020489 333.75081597 219.60978637 316.37646484 244.39257812 C314.51240976 247.05368399 312.65421016 249.718775 310.79785156 252.38525391 C305.18904672 260.43370783 299.53382862 268.44268926 293.77050781 276.38134766 C289.30798476 282.52833295 284.93850113 288.72770525 280.65869141 295.00317383 C278.32437013 298.42373481 275.97322714 301.82928477 273.57519531 305.20556641 C226.54007276 371.5069275 182.43767606 441.48218079 154.45800781 518.13134766 C154.04566895 519.25831055 153.63333008 520.38527344 153.20849609 521.54638672 C148.11404615 535.65958868 144.02726585 549.97477693 140.33300781 564.50634766 C140.12833893 565.30100433 139.92367004 566.09566101 139.71279907 566.91439819 C139.1335155 569.17910559 138.57024262 571.44714043 138.01269531 573.71728516 C137.83928116 574.39317184 137.665867 575.06905853 137.48719788 575.76542664 C136.58302189 579.54866956 136.35837732 582.38109519 137.45800781 586.13134766 C136.46800781 586.13134766 135.47800781 586.13134766 134.45800781 586.13134766 C134.420625 586.73076172 134.38324219 587.33017578 134.34472656 587.94775391 C133.74952384 596.15221501 132.69424573 604.27075063 131.56225586 612.41674805 C122.20733597 681.23080413 137.48727254 749.61326378 168.45800781 811.13134766 C168.88049805 811.98277344 169.30298828 812.83419922 169.73828125 813.71142578 C179.48204977 833.29318137 191.56880591 851.49259242 204.45800781 869.13134766 C204.9554248 869.81422852 205.4528418 870.49710938 205.96533203 871.20068359 C211.98651893 879.43653769 218.22791754 887.40636146 224.89160156 895.13134766 C227.22519304 897.85919888 229.47239063 900.63574533 231.70800781 903.44384766 C239.74010106 913.3139154 248.68940498 922.50373066 257.77050781 931.40869141 C259.59187279 933.26800149 261.27241016 935.21101292 262.95800781 937.19384766 C265.79788373 940.49320912 268.83995693 943.27606574 272.15722656 946.08447266 C275.04475684 948.6533451 277.7446874 951.38081792 280.45800781 954.13134766 C284.34212656 958.05888459 288.26908405 961.84843423 292.47753906 965.43212891 C294.78470733 967.41165198 297.02447564 969.45776886 299.27050781 971.50634766 C303.51024786 975.32853755 307.85988329 978.97586721 312.29785156 982.56494141 C314.66038468 984.47557804 317.0019326 986.40979531 319.33691406 988.35400391 C329.18592171 996.54539456 339.2249174 1004.4267183 349.45800781 1012.13134766 C351.08561707 1013.36180967 352.71322108 1014.59227863 354.34082031 1015.82275391 C368.72769994 1026.67645498 383.31173163 1037.23484799 398.05102539 1047.60375977 C405.56480991 1052.89595615 413.00992218 1058.2818615 420.44873047 1063.67871094 C422.29422059 1065.01293526 424.14580396 1066.33797886 426.00097656 1067.65869141 C426.99742187 1068.37154297 427.99386719 1069.08439453 429.02050781 1069.81884766 C429.86742187 1070.42083984 430.71433594 1071.02283203 431.58691406 1071.64306641 C433.45800781 1073.13134766 433.45800781 1073.13134766 434.45800781 1075.13134766 C416.50151604 1073.41047638 398.6707819 1070.65446663 380.83300781 1068.00634766 C380.00878201 1067.8841473 379.1845562 1067.76194695 378.33535385 1067.63604355 C352.89366686 1063.85955189 327.52614803 1059.95949545 302.45800781 1054.13134766 C301.79837036 1053.97897644 301.13873291 1053.82660522 300.45910645 1053.6696167 C244.04950485 1040.57607966 190.19847253 1019.93716022 138.45800781 994.13134766 C137.44689941 993.62780762 136.43579102 993.12426758 135.39404297 992.60546875 C77.87440032 963.76379292 23.48857704 925.58915335 -23.62792969 881.79931641 C-25.77797608 879.8308423 -27.94694755 877.92048879 -30.1574707 876.02294922 C-34.8334171 871.93582102 -39.22398283 867.59340622 -43.60839844 863.19775391 C-44.44612289 862.36098618 -45.28384735 861.52421844 -46.1469574 860.66209412 C-47.90706154 858.90266662 -49.66591896 857.14199112 -51.42358398 855.38012695 C-54.09670191 852.70165355 -56.7751147 850.02855892 -59.45410156 847.35595703 C-61.17252122 845.6368765 -62.89063061 843.91748576 -64.60839844 842.19775391 C-65.4002504 841.40792618 -66.19210236 840.61809845 -67.00794983 839.80433655 C-71.72106859 835.07152619 -76.19189406 830.19812651 -80.54199219 825.13134766 C-81.99644736 823.52366393 -83.45420114 821.91895051 -84.91699219 820.31884766 C-88.74235544 816.07558758 -92.39293308 811.72275268 -95.98339844 807.27978516 C-97.86461627 804.95323312 -99.7732897 802.65167956 -101.69433594 800.35791016 C-110.70931653 789.56830677 -119.20813306 778.4530731 -127.54199219 767.13134766 C-128.09741699 766.38272461 -128.6528418 765.63410156 -129.22509766 764.86279297 C-138.53874344 752.30098174 -147.14519721 739.32084411 -155.54199219 726.13134766 C-156.10950195 725.24012207 -156.67701172 724.34889648 -157.26171875 723.43066406 C-171.26613422 701.33855475 -183.76833161 678.48132621 -195.54199219 655.13134766 C-196.08855469 654.04901855 -196.63511719 652.96668945 -197.19824219 651.8515625 C-211.08844799 624.15879943 -222.6041915 595.46299448 -232.54199219 566.13134766 C-232.91630371 565.03822266 -233.29061523 563.94509766 -233.67626953 562.81884766 C-248.74455314 518.54719932 -258.87316461 472.68251929 -264.29199219 426.24603271 C-264.53114608 424.22309202 -264.78428617 422.2018195 -265.03808594 420.18066406 C-270.32385937 376.86244025 -270.62271375 329.48495016 -264.82061768 286.21594238 C-264.51847491 283.95539821 -264.22904266 281.69339976 -263.93994141 279.43115234 C-252.53986321 191.3501134 -222.94920549 97.0062851 -154.54199219 13.13134766 C-153.65898437 12.19677734 -152.77597656 11.26220703 -151.86621094 10.29931641 C-110.95474792 -32.03309467 -45.70798362 -40.26934926 0 0 Z M-137.16357422 48.02978516 C-195.15131436 118.99161505 -224.28034181 222.04620689 -230.54199219 312.13134766 C-230.62811768 313.29609619 -230.71424316 314.46084473 -230.80297852 315.66088867 C-231.66262701 328.04251847 -231.74235412 340.41137419 -231.72949219 352.81884766 C-231.72888794 353.8991626 -231.72828369 354.97947754 -231.72766113 356.0925293 C-231.69236022 379.41351532 -230.34711353 402.34468018 -227.60449219 425.50634766 C-227.52517456 426.17859375 -227.44585693 426.85083984 -227.36413574 427.54345703 C-226.17090122 437.4971087 -224.48633912 447.30308456 -222.54199219 457.13134766 C-161.78272082 474.65292305 -100.82786235 491.50008159 -39.92675781 508.52001953 C-14.02574315 515.75859057 11.87337828 523.00388896 37.77050781 530.25634766 C38.59320538 530.48673988 39.41590294 530.71713211 40.26353073 530.95450592 C49.99511302 533.67979879 59.72661492 536.40537855 69.45800781 539.13134766 C69.78800781 538.47134766 70.11800781 537.81134766 70.45800781 537.13134766 C69.45795616 534.82885351 69.45795616 534.82885351 67.91503906 532.23291016 C67.34156738 531.21044189 66.7680957 530.18797363 66.17724609 529.13452148 C65.54802246 528.01972412 64.91879883 526.90492676 64.27050781 525.75634766 C52.70349023 504.86294946 43.73640628 482.86263678 36.45800781 460.13134766 C35.96373291 458.61250977 35.96373291 458.61250977 35.45947266 457.06298828 C24.43898111 422.88945065 18.03711672 386.92186966 15.45800781 351.13134766 C15.32773193 349.38857544 15.32773193 349.38857544 15.19482422 347.6105957 C14.30308678 334.81401896 14.21478568 322.01733668 14.20800781 309.19384766 C14.20733307 308.03616882 14.20665833 306.87848999 14.20596313 305.68572998 C14.25837128 248.53734152 21.94332605 192.07070438 34.96899414 136.47436523 C35.13551483 135.75461517 35.30203552 135.03486511 35.47360229 134.29330444 C35.92183105 132.36035528 36.37796878 130.42924485 36.8347168 128.49829102 C37.79743159 123.29782109 38.02862662 119.44583318 35.50878906 114.72509766 C35.07977295 113.91041016 34.65075684 113.09572266 34.20874023 112.25634766 C33.73412354 111.39009766 33.25950684 110.52384766 32.77050781 109.63134766 C32.27719971 108.71353516 31.7838916 107.79572266 31.27563477 106.85009766 C0.5378394 48.489407 0.5378394 48.489407 -51.72949219 12.13134766 C-86.14835304 2.24558231 -115.71609457 22.92054068 -137.16357422 48.02978516 Z M146.45800781 87.13134766 C145.47519836 87.59438293 145.47519836 87.59438293 144.47253418 88.06677246 C128.94720741 95.39275901 113.53393429 102.91347918 98.45800781 111.13134766 C97.90014587 111.43508301 97.34228394 111.73881836 96.76751709 112.05175781 C92.22189849 114.52763312 87.68237143 117.01447138 83.14550781 119.50634766 C82.1900708 120.03007965 82.1900708 120.03007965 81.21533203 120.56439209 C79.38179273 121.57069096 77.55044654 122.58086805 75.71972656 123.59228516 C74.65713623 124.17800293 73.5945459 124.7637207 72.49975586 125.3671875 C71.495979 125.94936035 70.49220215 126.5315332 69.45800781 127.13134766 C67.85070801 127.98587524 67.85070801 127.98587524 66.2109375 128.85766602 C62.63266462 131.81300969 61.99148671 134.67769833 61.14941406 139.04931641 C60.97709763 139.84141006 60.80478119 140.63350372 60.62724304 141.44960022 C60.0658115 144.06798401 59.54199899 146.6922393 59.02050781 149.31884766 C58.636464 151.17225509 58.25135507 153.0254421 57.86523438 154.87841797 C56.68262602 160.62053374 55.56217867 166.37369799 54.45800781 172.13134766 C54.28895935 173.00704407 54.11991089 173.88274048 53.94573975 174.78497314 C49.26133959 199.14674736 45.97513249 223.59387748 43.40332031 248.26416016 C43.32137421 249.04081024 43.2394281 249.81746033 43.15499878 250.61764526 C41.88481569 263.18437833 41.29586439 275.71760126 41.25488281 288.34619141 C41.25205544 289.04270876 41.24922806 289.73922611 41.246315 290.45685005 C41.23146239 294.15719071 41.2221505 297.85749392 41.21777344 301.55786133 C41.21343271 304.53487702 41.19969345 307.51159571 41.17675781 310.48852539 C40.97252487 337.59734566 42.45936136 364.37690777 47.14550781 391.13134766 C47.33300598 392.22760468 47.33300598 392.22760468 47.52429199 393.3460083 C53.65693896 428.98476899 63.96554698 463.40619195 79.45800781 496.13134766 C79.90257324 497.07945312 80.34713867 498.02755859 80.80517578 499.00439453 C91.61739254 522.76575646 91.61739254 522.76575646 107.45800781 543.13134766 C107.76391846 542.19266846 108.0698291 541.25398926 108.38500977 540.28686523 C124.490318 490.97544888 143.90295289 443.90594285 169.87304688 398.89111328 C171.40439976 396.22469107 172.91518308 393.54778355 174.41894531 390.86572266 C187.08992123 368.32443261 201.21737466 346.70311235 215.45800781 325.13134766 C216.15104004 324.07818359 216.84407227 323.02501953 217.55810547 321.93994141 C225.28299994 310.20813273 233.15355592 298.63200294 241.44238281 287.29150391 C244.37678154 283.26748011 247.21260294 279.18182796 250.02050781 275.06884766 C255.25113379 267.40870113 260.58861577 259.82783694 265.95068359 252.25927734 C269.94740625 246.61699768 273.93363657 240.96735039 277.91601562 235.31494141 C279.43291552 233.16688051 280.95678358 231.02390377 282.48144531 228.88134766 C300.13010828 203.98641217 317.28922564 178.62359721 332.45800781 152.13134766 C333.08231689 151.05433594 333.08231689 151.05433594 333.71923828 149.95556641 C344.33138332 131.53756886 356.28480257 106.93586231 351.86816406 85.23291016 C348.54205816 74.28894881 340.84170337 67.23574651 331.01489258 61.89282227 C268.03878862 29.3201218 205.21930682 59.44023394 146.45800781 87.13134766 Z M-216.54199219 487.13134766 C-199.14377602 572.63442315 -160.66412455 654.42935018 -111.54199219 726.13134766 C-110.78885742 727.2320459 -110.78885742 727.2320459 -110.02050781 728.35498047 C-92.310561 754.11597787 -72.69421643 778.65765099 -51.66699219 801.78759766 C-50.25968663 803.33977291 -48.86362303 804.9022217 -47.47949219 806.47509766 C-41.29834781 813.47433467 -34.72212702 820.04136164 -28.08569336 826.60400391 C-24.42744369 830.2234899 -20.80291059 833.87627828 -17.17871094 837.52978516 C-15.52903703 839.18870463 -13.87929561 840.84755698 -12.22949219 842.50634766 C-11.41287109 843.33134766 -10.59625 844.15634766 -9.75488281 845.00634766 C-4.84930312 849.9314715 0.17139902 854.61988727 5.45800781 859.13134766 C6.61420789 860.14163519 7.76918736 861.15332158 8.92285156 862.16650391 C24.5970808 875.85537564 40.6974783 888.79401511 57.45800781 901.13134766 C58.20663086 901.68677246 58.95525391 902.24219727 59.7265625 902.81445312 C85.57470534 921.9789225 113.11841047 938.91237584 141.45800781 954.13134766 C142.28848633 954.58010254 143.11896484 955.02885742 143.97460938 955.49121094 C185.32165366 977.75089782 228.89676944 995.35811779 273.83300781 1008.94384766 C274.95602295 1009.28770508 276.07903809 1009.6315625 277.23608398 1009.98583984 C278.26580322 1010.28780273 279.29552246 1010.58976562 280.35644531 1010.90087891 C281.25024902 1011.16489502 282.14405273 1011.42891113 283.06494141 1011.70092773 C285.57859752 1012.15303707 287.06489422 1011.9525686 289.45800781 1011.13134766 C288.04261719 1009.91511719 288.04261719 1009.91511719 286.59863281 1008.67431641 C279.81909145 1002.8328527 273.09203093 996.95195706 266.52514648 990.87182617 C263.90073651 988.44379155 261.24450374 986.0717442 258.52050781 983.75634766 C254.18775978 980.01401602 250.20092942 975.92773961 246.20043945 971.83691406 C243.64462321 969.23999494 241.07821251 966.76179476 238.25488281 964.45556641 C235.98797874 962.57175646 234.18558098 960.83141653 232.33300781 958.56884766 C229.21155386 954.89940512 225.88412386 951.51154287 222.45800781 948.13134766 C217.90751365 943.62464166 213.60875838 939.01117217 209.45800781 934.13134766 C208.48416863 933.01942423 207.50875349 931.90888011 206.53222656 930.79931641 C199.20862101 922.45924396 192.19768138 913.9485998 185.45800781 905.13134766 C184.61133545 904.03161621 184.61133545 904.03161621 183.74755859 902.90966797 C163.01310728 875.92869155 145.73494934 847.51247047 130.45800781 817.13134766 C130.05598145 816.34195801 129.65395508 815.55256836 129.23974609 814.73925781 C94.30806035 745.85828967 83.72915471 661.2237095 98.63134766 585.54394531 C99.35713645 581.71386773 99.33078508 578.90598833 98.45800781 575.13134766 C97.49053116 574.86113297 96.5230545 574.59091827 95.52626038 574.31251526 C50.43313831 561.71764976 5.34329903 549.11130347 -39.72949219 536.44384766 C-40.63819061 536.18846725 -41.54688904 535.93308685 -42.48312378 535.66996765 C-47.07477741 534.37951934 -51.66641888 533.08902774 -56.25805664 531.79852295 C-57.16443878 531.54377953 -58.07082092 531.2890361 -59.00466919 531.02657318 C-60.82805626 530.5140952 -62.65144088 530.00160846 -64.474823 529.48911285 C-93.60865244 521.3006187 -122.74732586 513.12938551 -151.8866272 504.96038818 C-160.55989074 502.52882124 -169.23270269 500.09565482 -177.904953 497.66047668 C-182.71492602 496.30998728 -187.52516787 494.96045743 -192.33547974 493.61117554 C-194.49029078 493.00650722 -196.64497725 492.40139478 -198.79953003 491.79580688 C-201.66257804 490.99112613 -204.52605188 490.18797995 -207.38964844 489.38525391 C-208.21743805 489.15215515 -209.04522766 488.9190564 -209.89810181 488.67889404 C-213.17241837 487.60108619 -213.17241837 487.60108619 -216.54199219 487.13134766 Z " fill="#FDFDFD" transform="translate(318.5419921875,68.86865234375)"/>
<path d="M0 0 C2.1387261 3.20808915 2.47730962 4.27698497 2 8 C1.01 8.66 0.02 9.32 -1 10 C-0.67 6.7 -0.34 3.4 0 0 Z " fill="#F0F0F0" transform="translate(1304,1280)"/>
</svg>
